<?xml version="1.0" standalone="no"?>
<!DOCTYPE svg PUBLIC "-//W3C//DTD SVG 20010904//EN"
 "http://www.w3.org/TR/2001/REC-SVG-20010904/DTD/svg10.dtd">
<svg version="1.0" xmlns="http://www.w3.org/2000/svg"
 width="64.000000pt" height="64.000000pt" viewBox="0 0 64.000000 64.000000"
 preserveAspectRatio="xMidYMid meet">
<metadata>
Created by potrace 1.10, written by Peter Selinger 2001-2011
</metadata>
<g transform="translate(0.000000,64.000000) scale(0.100000,-0.100000)"
fill="#000000" stroke="none">
<path d="M195 600 c-27 -53 -14 -102 36 -135 41 -27 69 -75 69 -117 0 -56 -60
-251 -81 -266 -11 -8 -19 -25 -19 -43 0 -27 2 -29 41 -29 28 0 39 4 36 13 -2
6 -14 11 -25 9 -26 -4 -31 25 -7 34 9 4 28 48 45 103 58 189 55 229 -27 307
-52 50 -55 55 -49 89 l7 36 34 -21 c19 -12 53 -23 75 -24 66 -5 85 -32 105
-143 17 -92 17 -97 0 -110 -32 -23 -44 1 -47 93 -2 46 -7 85 -13 87 -11 2 -20
-143 -11 -179 11 -42 73 -48 105 -10 11 14 12 29 2 89 -26 157 -51 197 -123
197 -24 0 -53 9 -78 25 -50 32 -56 31 -75 -5z"/>
<path d="M46 295 c-2 -7 4 -21 15 -31 24 -21 54 -9 54 22 0 14 -8 19 -32 20
-18 1 -34 -4 -37 -11z"/>
<path d="M440 235 c0 -4 16 -29 35 -55 36 -49 45 -93 25 -131 -9 -16 -22 -19
-86 -19 -67 0 -75 2 -72 17 3 14 13 18 45 18 43 1 69 14 44 23 -7 2 -22 13
-33 24 -20 20 -40 16 -31 -7 4 -11 -2 -15 -20 -15 -26 0 -37 -16 -37 -56 l0
-24 126 0 c69 0 134 4 144 10 24 13 33 53 18 84 -16 36 -32 33 -24 -6 4 -22 1
-37 -10 -50 -24 -25 -48 -25 -34 1 20 38 11 87 -23 137 -29 42 -67 70 -67 49z"/>
</g>
</svg>
