<?xml version="1.0" standalone="no"?>
<!DOCTYPE svg PUBLIC "-//W3C//DTD SVG 20010904//EN"
 "http://www.w3.org/TR/2001/REC-SVG-20010904/DTD/svg10.dtd">
<svg version="1.0" xmlns="http://www.w3.org/2000/svg"
 width="100.000000pt" height="100.000000pt" viewBox="0 0 100.000000 100.000000"
 preserveAspectRatio="xMidYMid meet">
<metadata>
Created by potrace 1.10, written by Peter Selinger 2001-2011
</metadata>
<g transform="translate(0.000000,100.000000) scale(0.100000,-0.100000)"
fill="#000000" stroke="none">
<path d="M160 900 c-22 -22 -26 -50 -9 -67 8 -8 1 -25 -24 -62 -49 -70 -78
-152 -84 -237 -11 -139 34 -253 143 -362 l72 -72 242 0 242 0 72 73 c171 171
193 395 60 595 -26 39 -33 57 -25 65 17 17 13 45 -9 67 -19 19 -33 20 -340 20
-307 0 -321 -1 -340 -20z m655 -40 c0 -13 -42 -15 -309 -18 -181 -1 -314 2
-319 7 -28 28 10 31 316 29 270 -3 312 -5 312 -18z m15 -97 l30 -38 -67 -7
c-38 -4 -122 -22 -188 -40 -101 -27 -138 -32 -230 -32 -76 0 -127 5 -165 17
-83 26 -87 30 -65 64 10 15 27 38 38 51 20 22 22 22 318 22 l298 0 31 -37z
m68 -128 c22 -59 21 -207 -1 -272 -23 -67 -92 -160 -143 -195 l-40 -28 -216 0
-215 0 -45 34 c-118 90 -178 256 -148 408 6 35 14 66 16 69 2 3 36 -6 76 -19
61 -21 92 -26 188 -26 98 -1 133 4 240 31 166 43 157 41 219 40 53 -2 54 -2
69 -42z"/>
<path d="M664 606 c-10 -26 4 -48 28 -44 17 2 23 10 23 28 0 18 -6 26 -23 28
-13 2 -25 -3 -28 -12z"/>
<path d="M604 526 c-10 -26 4 -48 28 -44 17 2 23 10 23 28 0 18 -6 26 -23 28
-13 2 -25 -3 -28 -12z"/>
<path d="M287 440 c10 -32 10 -128 0 -160 -7 -22 -4 -20 28 13 l36 37 45 -31
c80 -55 149 -48 228 21 49 43 45 66 -18 105 -40 24 -60 30 -107 30 -49 0 -64
-5 -103 -32 l-46 -33 -36 38 c-31 33 -34 34 -27 12z m276 -36 c59 -30 60 -34
20 -65 -61 -49 -108 -50 -171 -2 l-33 25 25 19 c52 41 107 49 159 23z"/>
<path d="M504 389 c-10 -17 13 -36 27 -22 12 12 4 33 -11 33 -5 0 -12 -5 -16
-11z"/>
<path d="M684 449 c-10 -17 13 -36 27 -22 12 12 4 33 -11 33 -5 0 -12 -5 -16
-11z"/>
</g>
</svg>
