<?xml version="1.0" standalone="no"?>
<!DOCTYPE svg PUBLIC "-//W3C//DTD SVG 20010904//EN"
 "http://www.w3.org/TR/2001/REC-SVG-20010904/DTD/svg10.dtd">
<svg version="1.0" xmlns="http://www.w3.org/2000/svg"
 width="100.000000pt" height="100.000000pt" viewBox="0 0 100.000000 100.000000"
 preserveAspectRatio="xMidYMid meet">
<metadata>
Created by potrace 1.10, written by Peter Selinger 2001-2011
</metadata>
<g transform="translate(0.000000,100.000000) scale(0.100000,-0.100000)"
fill="#000000" stroke="none">
<path d="M432 892 l-38 -49 -53 29 c-30 16 -59 27 -67 24 -7 -3 -20 -29 -30
-60 l-17 -54 -36 6 c-20 3 -47 6 -61 7 -27 0 -30 -14 -18 -87 6 -36 5 -38 -43
-67 -27 -17 -49 -34 -49 -39 0 -4 13 -28 29 -52 l29 -45 -41 -42 -41 -43 42
-43 42 -42 -21 -34 c-30 -49 -20 -61 51 -61 38 0 60 -4 60 -11 0 -38 43 -150
61 -160 35 -18 68 -2 91 45 19 40 23 43 45 35 31 -11 116 -11 167 1 36 8 41 6
60 -18 59 -76 90 -88 126 -52 14 14 20 33 20 63 0 42 1 43 49 60 107 38 191
136 204 239 7 49 -5 70 -26 49 -18 -18 -54 -13 -83 12 l-27 24 33 57 c37 65
34 75 -28 83 -40 5 -40 6 -34 42 12 72 9 86 -18 86 -14 -1 -41 -4 -61 -7 l-36
-6 -6 51 c-9 72 -17 75 -83 40 l-57 -31 -39 49 c-21 27 -43 49 -48 49 -5 0
-27 -22 -48 -48z m89 -54 l37 -43 48 25 c27 13 52 26 55 27 3 2 9 -20 15 -49
10 -58 16 -61 91 -45 32 6 32 6 26 -26 -15 -71 -11 -81 34 -92 l42 -10 -21
-33 c-15 -24 -25 -31 -37 -26 -9 4 -42 9 -73 12 -32 2 -58 8 -58 12 0 4 -14
13 -31 21 -29 12 -33 11 -50 -10 -21 -26 -25 -78 -8 -115 19 -41 -23 -113 -89
-152 -67 -41 -138 -54 -289 -54 l-124 0 18 30 17 30 -39 40 -39 40 38 39 39
40 -28 46 c-15 26 -25 48 -23 49 1 2 23 15 46 30 42 26 44 29 37 64 -3 20 -8
45 -11 54 -5 15 -1 17 28 11 72 -15 81 -12 101 42 10 27 20 51 22 53 2 2 27
-9 56 -24 l52 -29 36 43 c19 23 38 42 40 42 3 0 22 -19 42 -42z m196 -298 c56
0 81 -11 137 -59 31 -27 57 -41 76 -41 28 0 28 0 17 -36 -23 -76 -110 -146
-229 -187 -14 -5 -18 -18 -18 -56 0 -27 -5 -53 -12 -57 -7 -4 -29 13 -57 45
l-46 52 -54 -12 c-52 -11 -143 -8 -188 6 -19 6 -25 0 -47 -44 -38 -73 -45 -69
-78 40 l-14 46 100 6 c133 7 205 33 268 98 54 55 77 117 59 156 -12 27 -14 66
-4 76 3 4 16 -2 28 -13 14 -13 35 -20 62 -20z"/>
<path d="M784 429 c-10 -17 13 -36 27 -22 12 12 4 33 -11 33 -5 0 -12 -5 -16
-11z"/>
</g>
</svg>
