<?xml version="1.0" standalone="no"?>
<!DOCTYPE svg PUBLIC "-//W3C//DTD SVG 20010904//EN"
 "http://www.w3.org/TR/2001/REC-SVG-20010904/DTD/svg10.dtd">
<svg version="1.0" xmlns="http://www.w3.org/2000/svg"
 width="100.000000pt" height="100.000000pt" viewBox="0 0 100.000000 100.000000"
 preserveAspectRatio="xMidYMid meet">
<metadata>
Created by potrace 1.10, written by Peter Selinger 2001-2011
</metadata>
<g transform="translate(0.000000,100.000000) scale(0.100000,-0.100000)"
fill="#000000" stroke="none">
<path d="M845 987 c-3 -6 -6 -50 -7 -97 l-3 -85 -42 -6 c-49 -6 -73 -24 -73
-53 1 -59 81 -87 134 -45 25 20 26 24 26 121 l0 101 33 -8 c17 -4 43 -8 57 -9
22 -1 25 3 25 34 0 33 -2 35 -45 42 -25 4 -58 10 -73 12 -17 4 -29 1 -32 -7z
m60 -26 c17 -7 17 -8 -8 -13 -19 -4 -27 -1 -27 8 0 15 6 16 35 5z m80 -21 c8
-13 -15 -13 -35 0 -12 8 -11 10 7 10 12 0 25 -4 28 -10z m-135 -185 c0 -34
-39 -53 -75 -37 -49 23 -21 48 68 61 4 1 7 -10 7 -24z"/>
<path d="M420 644 c-86 -37 -112 -86 -121 -231 -8 -132 -28 -177 -93 -214 -33
-19 -56 -23 -120 -24 -50 0 -81 -4 -83 -11 -10 -29 121 -86 229 -99 40 -5 55
-11 52 -20 -9 -24 14 -26 53 -5 48 25 78 25 127 -1 27 -14 42 -17 49 -10 12
12 -18 51 -40 51 -22 0 -15 17 10 24 75 18 167 153 188 273 8 47 17 66 35 78
36 23 59 62 46 78 -7 8 -7 18 -2 27 6 8 10 26 10 39 0 18 -4 22 -17 18 -94
-31 -97 -31 -126 -5 -49 46 -134 60 -197 32z m135 -38 c18 -8 41 -26 51 -40
10 -16 23 -25 33 -22 9 3 30 8 46 11 l30 6 -29 -25 -29 -24 29 -4 29 -4 -36
-18 c-33 -17 -37 -23 -43 -72 -15 -130 -87 -240 -189 -285 -44 -21 -67 -24
-152 -23 -60 1 -118 8 -145 17 l-45 15 35 1 c19 1 53 10 75 20 85 39 115 100
124 257 6 90 11 116 29 141 41 58 118 78 187 49z"/>
<path d="M524 546 c-10 -26 4 -48 28 -44 33 4 33 52 0 56 -13 2 -25 -3 -28
-12z"/>
</g>
</svg>
