<?xml version="1.0" standalone="no"?>
<!DOCTYPE svg PUBLIC "-//W3C//DTD SVG 20010904//EN"
 "http://www.w3.org/TR/2001/REC-SVG-20010904/DTD/svg10.dtd">
<svg version="1.0" xmlns="http://www.w3.org/2000/svg"
 width="64.000000pt" height="64.000000pt" viewBox="0 0 64.000000 64.000000"
 preserveAspectRatio="xMidYMid meet">
<metadata>
Created by potrace 1.10, written by Peter Selinger 2001-2011
</metadata>
<g transform="translate(0.000000,64.000000) scale(0.100000,-0.100000)"
fill="#000000" stroke="none">
<path d="M312 378 c-18 -23 -113 -282 -109 -298 3 -8 8 -23 12 -32 6 -16 0
-18 -66 -18 -82 0 -105 9 -95 35 6 17 21 17 99 2 7 -1 12 5 12 13 0 10 -17 18
-53 24 -48 8 -56 7 -75 -12 -17 -18 -19 -26 -11 -49 l9 -28 134 -3 c104 -2
132 0 129 10 -3 7 -15 14 -27 16 -12 2 -27 14 -33 27 -9 19 -2 45 37 147 26
67 49 125 51 127 2 2 13 -4 24 -14 25 -23 95 -22 121 1 11 9 21 15 23 13 2 -2
25 -60 51 -127 39 -102 46 -128 37 -147 -15 -33 -68 -43 -92 -17 -15 16 -32
20 -80 20 -62 0 -90 -14 -90 -44 0 -19 26 -18 34 1 7 20 26 19 42 -2 13 -17
15 -17 28 -1 16 22 35 23 42 3 4 -11 21 -15 56 -15 39 0 54 5 73 25 14 13 25
34 25 45 0 20 -103 296 -115 308 -3 3 -18 -7 -33 -21 -37 -36 -86 -36 -122 -2
-21 20 -29 23 -38 13z"/>
<path d="M344 229 c-10 -17 13 -36 27 -22 12 12 4 33 -11 33 -5 0 -12 -5 -16
-11z"/>
<path d="M444 229 c-10 -17 13 -36 27 -22 12 12 4 33 -11 33 -5 0 -12 -5 -16
-11z"/>
</g>
</svg>
